{
    "asset" : {
        "generator" : "Khronos glTF Blender I/O v1.4.40",
        "version" : "2.0"
    },
    "scene" : 0,
    "scenes" : [
        {
            "name" : "Scene",
            "nodes" : [
                0,
                1,
                2,
                3,
                4,
                5,
                6,
                7,
                8
            ]
        }
    ],
    "nodes" : [
        {
            "name" : "Camera",
            "rotation" : [
                0.483536034822464,
                0.33687159419059753,
                -0.20870360732078552,
                0.7804827094078064
            ],
            "translation" : [
                7.358891487121582,
                4.958309173583984,
                6.925790786743164
            ]
        },
        {
            "name" : "Light.002",
            "rotation" : [
                0.16907575726509094,
                0.7558803558349609,
                -0.27217137813568115,
                0.570947527885437
            ],
            "translation" : [
                -3.397031784057617,
                1.6942253112792969,
                -3.1617989540100098
            ]
        },
        {
            "name" : "Light.003",
            "rotation" : [
                0.16907575726509094,
                0.7558803558349609,
                -0.27217137813568115,
                0.570947527885437
            ],
            "translation" : [
                -3.397031784057617,
                1.6942253112792969,
                -3.1617989540100098
            ]
        },
        {
            "name" : "Light.001",
            "rotation" : [
                0.16907575726509094,
                0.7558803558349609,
                -0.27217137813568115,
                0.570947527885437
            ],
            "translation" : [
                3.0826923847198486,
                3.421298027038574,
                -2.9353082180023193
            ]
        },
        {
            "name" : "Light.004",
            "rotation" : [
                0.16907575726509094,
                0.7558803558349609,
                -0.27217137813568115,
                0.570947527885437
            ],
            "translation" : [
                6.28675651550293,
                2.122041702270508,
                3.7259767055511475
            ]
        },
        {
            "name" : "Light.005",
            "rotation" : [
                0.16907575726509094,
                0.7558803558349609,
                -0.27217137813568115,
                0.570947527885437
            ],
            "translation" : [
                -4.990624904632568,
                2.4654626846313477,
                5.1438798904418945
            ]
        },
        {
            "name" : "Light.006",
            "rotation" : [
                0.16907575726509094,
                0.7558803558349609,
                -0.27217137813568115,
                0.570947527885437
            ],
            "translation" : [
                3.3563613891601562,
                -1.6476722955703735,
                1.3520375490188599
            ]
        },
        {
            "name" : "Light.007",
            "rotation" : [
                0.16907575726509094,
                0.7558803558349609,
                -0.27217137813568115,
                0.570947527885437
            ],
            "translation" : [
                -3.1594090461730957,
                -3.3454670906066895,
                3.875633716583252
            ]
        },
        {
            "mesh" : 0,
            "name" : "Cone.004",
            "rotation" : [
                -0.5241215229034424,
                0.41709765791893005,
                0.6660266518592834,
                0.3282298743724823
            ],
            "translation" : [
                0,
                -1.946249008178711,
                -0.8587557077407837
            ]
        }
    ],
    "materials" : [
        {
            "doubleSided" : true,
            "name" : "Material.012",
            "pbrMetallicRoughness" : {
                "baseColorTexture" : {
                    "index" : 0,
                    "texCoord" : 0
                },
                "metallicFactor" : 0,
                "roughnessFactor" : 0.5
            }
        }
    ],
    "meshes" : [
        {
            "name" : "Cone.004",
            "primitives" : [
                {
                    "attributes" : {
                        "POSITION" : 0,
                        "NORMAL" : 1,
                        "TEXCOORD_0" : 2
                    },
                    "indices" : 3,
                    "material" : 0
                }
            ]
        }
    ],
    "textures" : [
        {
            "sampler" : 0,
            "source" : 0
        }
    ],
    "images" : [
        {
            "bufferView" : 4,
            "mimeType" : "image/jpeg",
            "name" : "20"
        }
    ],
    "accessors" : [
        {
            "bufferView" : 0,
            "componentType" : 5126,
            "count" : 46280,
            "max" : [
                11.158188819885254,
                30.590709686279297,
                10.659029006958008
            ],
            "min" : [
                -9.312382698059082,
                -21.542003631591797,
                -11.975982666015625
            ],
            "type" : "VEC3"
        },
        {
            "bufferView" : 1,
            "componentType" : 5126,
            "count" : 46280,
            "type" : "VEC3"
        },
        {
            "bufferView" : 2,
            "componentType" : 5126,
            "count" : 46280,
            "type" : "VEC2"
        },
        {
            "bufferView" : 3,
            "componentType" : 5123,
            "count" : 69222,
            "type" : "SCALAR"
        }
    ],
    "bufferViews" : [
        {
            "buffer" : 0,
            "byteLength" : 555360,
            "byteOffset" : 0
        },
        {
            "buffer" : 0,
            "byteLength" : 555360,
            "byteOffset" : 555360
        },
        {
            "buffer" : 0,
            "byteLength" : 370240,
            "byteOffset" : 1110720
        },
        {
            "buffer" : 0,
            "byteLength" : 138444,
            "byteOffset" : 1480960
        },
        {
            "buffer" : 0,
            "byteLength" : 16147,
            "byteOffset" : 1619404
        }
    ],
    "samplers" : [
        {
            "magFilter" : 9729,
            "minFilter" : 9986
        }
    ],
    "buffers" : [
        {
            "byteLength" : 1635552,
            "uri" : "data:application/octet-stream;base64,"
        }
    ]
}
