{
    "asset" : {
        "generator" : "Khronos glTF Blender I/O v1.4.40",
        "version" : "2.0"
    },
    "scene" : 0,
    "scenes" : [
        {
            "name" : "Scene",
            "nodes" : [
                0,
                1,
                2,
                3,
                4,
                5,
                6
            ]
        }
    ],
    "nodes" : [
        {
            "name" : "Camera",
            "rotation" : [
                0.483536034822464,
                0.33687159419059753,
                -0.20870360732078552,
                0.7804827094078064
            ],
            "translation" : [
                7.358891487121582,
                4.958309173583984,
                6.925790786743164
            ]
        },
        {
            "mesh" : 0,
            "name" : "Icosphere"
        },
        {
            "name" : "Point"
        },
        {
            "name" : "Point.001",
            "translation" : [
                -3.3294360637664795,
                4.838561058044434,
                2.116427421569824
            ]
        },
        {
            "name" : "Point.002",
            "translation" : [
                3.335240125656128,
                4.838561058044434,
                -4.657229423522949
            ]
        },
        {
            "name" : "Point.003",
            "translation" : [
                -1.913238286972046,
                -2.6677041053771973,
                2.681734085083008
            ]
        },
        {
            "name" : "Point.004",
            "translation" : [
                5.91478967666626,
                1.9882175922393799,
                2.0193443298339844
            ]
        }
    ],
    "materials" : [
        {
            "doubleSided" : true,
            "name" : "Material.002",
            "pbrMetallicRoughness" : {
                "baseColorTexture" : {
                    "index" : 0,
                    "texCoord" : 0
                },
                "metallicFactor" : 0.2261904776096344,
                "roughnessFactor" : 0
            }
        }
    ],
    "meshes" : [
        {
            "name" : "Icosphere",
            "primitives" : [
                {
                    "attributes" : {
                        "POSITION" : 0,
                        "NORMAL" : 1,
                        "TEXCOORD_0" : 2
                    },
                    "indices" : 3,
                    "material" : 0
                }
            ]
        }
    ],
    "textures" : [
        {
            "sampler" : 0,
            "source" : 0
        }
    ],
    "images" : [
        {
            "bufferView" : 4,
            "mimeType" : "image/jpeg",
            "name" : "5"
        }
    ],
    "accessors" : [
        {
            "bufferView" : 0,
            "componentType" : 5126,
            "count" : 9728,
            "max" : [
                1.727374792098999,
                4.484134674072266,
                3.2748193740844727
            ],
            "min" : [
                -3.47391939163208,
                -2.0316569805145264,
                -2.2379908561706543
            ],
            "type" : "VEC3"
        },
        {
            "bufferView" : 1,
            "componentType" : 5126,
            "count" : 9728,
            "type" : "VEC3"
        },
        {
            "bufferView" : 2,
            "componentType" : 5126,
            "count" : 9728,
            "type" : "VEC2"
        },
        {
            "bufferView" : 3,
            "componentType" : 5123,
            "count" : 14958,
            "type" : "SCALAR"
        }
    ],
    "bufferViews" : [
        {
            "buffer" : 0,
            "byteLength" : 116736,
            "byteOffset" : 0
        },
        {
            "buffer" : 0,
            "byteLength" : 116736,
            "byteOffset" : 116736
        },
        {
            "buffer" : 0,
            "byteLength" : 77824,
            "byteOffset" : 233472
        },
        {
            "buffer" : 0,
            "byteLength" : 29916,
            "byteOffset" : 311296
        },
        {
            "buffer" : 0,
            "byteLength" : 92705,
            "byteOffset" : 341212
        }
    ],
    "samplers" : [
        {
            "magFilter" : 9729,
            "minFilter" : 9986
        }
    ],
    "buffers" : [
        {
            "byteLength" : 433920,
            "uri" : "data:application/octet-stream;base64,"
        }
    ]
}
