{
    "asset" : {
        "generator" : "Khronos glTF Blender I/O v1.4.40",
        "version" : "2.0"
    },
    "scene" : 0,
    "scenes" : [
        {
            "name" : "Scene",
            "nodes" : [
                0,
                1,
                2
            ]
        }
    ],
    "nodes" : [
        {
            "name" : "Light",
            "rotation" : [
                0.17222438752651215,
                0.755169153213501,
                -0.27454841136932373,
                0.569808304309845
            ],
            "scale" : [
                0.9886408448219299,
                0.9994656443595886,
                0.999552845954895
            ],
            "translation" : [
                4.095265865325928,
                5.901577949523926,
                -0.9679841995239258
            ]
        },
        {
            "name" : "Camera",
            "rotation" : [
                0.4849357604980469,
                0.3348535895347595,
                -0.21195444464683533,
                0.779606282711029
            ],
            "scale" : [
                0.993701159954071,
                0.9955956935882568,
                0.9989487528800964
            ],
            "translation" : [
                7.369916915893555,
                4.92869758605957,
                6.863497734069824
            ]
        },
        {
            "mesh" : 0,
            "name" : "Cube",
            "rotation" : [
                -0.0014043846167623997,
                -0.0031327849719673395,
                -0.005241252016276121,
                0.9999803900718689
            ],
            "scale" : [
                1,
                1,
                0.9874223470687866
            ],
            "translation" : [
                -0.1929764598608017,
                0.9332745671272278,
                -0.19705431163311005
            ]
        }
    ],
    "materials" : [
        {
            "doubleSided" : true,
            "name" : "Material.002",
            "pbrMetallicRoughness" : {
                "baseColorTexture" : {
                    "index" : 0,
                    "texCoord" : 0
                },
                "metallicFactor" : 0.2380952388048172,
                "roughnessFactor" : 0
            }
        }
    ],
    "meshes" : [
        {
            "name" : "Cube.001",
            "primitives" : [
                {
                    "attributes" : {
                        "POSITION" : 0,
                        "NORMAL" : 1,
                        "TEXCOORD_0" : 2
                    },
                    "indices" : 3,
                    "material" : 0
                }
            ]
        }
    ],
    "textures" : [
        {
            "sampler" : 0,
            "source" : 0
        }
    ],
    "images" : [
        {
            "bufferView" : 4,
            "mimeType" : "image/jpeg",
            "name" : "plantas-e1569789174411"
        }
    ],
    "accessors" : [
        {
            "bufferView" : 0,
            "componentType" : 5126,
            "count" : 8841,
            "max" : [
                1.7909131050109863,
                2.0717663764953613,
                3.033046245574951
            ],
            "min" : [
                -2.2130537033081055,
                -1.398725986480713,
                -5.350017547607422
            ],
            "type" : "VEC3"
        },
        {
            "bufferView" : 1,
            "componentType" : 5126,
            "count" : 8841,
            "type" : "VEC3"
        },
        {
            "bufferView" : 2,
            "componentType" : 5126,
            "count" : 8841,
            "type" : "VEC2"
        },
        {
            "bufferView" : 3,
            "componentType" : 5123,
            "count" : 13428,
            "type" : "SCALAR"
        }
    ],
    "bufferViews" : [
        {
            "buffer" : 0,
            "byteLength" : 106092,
            "byteOffset" : 0
        },
        {
            "buffer" : 0,
            "byteLength" : 106092,
            "byteOffset" : 106092
        },
        {
            "buffer" : 0,
            "byteLength" : 70728,
            "byteOffset" : 212184
        },
        {
            "buffer" : 0,
            "byteLength" : 26856,
            "byteOffset" : 282912
        },
        {
            "buffer" : 0,
            "byteLength" : 92705,
            "byteOffset" : 309768
        }
    ],
    "samplers" : [
        {
            "magFilter" : 9729,
            "minFilter" : 9986
        }
    ],
    "buffers" : [
        {
            "byteLength" : 402476,
            "uri" : "data:application/octet-stream;base64,"
        }
    ]
}
