{
    "asset" : {
        "generator" : "Khronos glTF Blender I/O v1.4.40",
        "version" : "2.0"
    },
    "scene" : 0,
    "scenes" : [
        {
            "name" : "Scene",
            "nodes" : [
                0
            ]
        }
    ],
    "nodes" : [
        {
            "mesh" : 0,
            "name" : "mariposa",
            "rotation" : [
                0.7071068286895752,
                0,
                0,
                0.7071067094802856
            ],
            "translation" : [
                156.1520233154297,
                -119.8819580078125,
                -46.65320587158203
            ]
        }
    ],
    "materials" : [
        {
            "doubleSided" : true,
            "name" : "st_wood",
            "pbrMetallicRoughness" : {
                "baseColorFactor" : [
                    0.800000011920929,
                    0.800000011920929,
                    0.800000011920929,
                    1
                ],
                "metallicFactor" : 0,
                "roughnessFactor" : 0.5
            }
        },
        {
            "doubleSided" : true,
            "name" : "st_vio",
            "pbrMetallicRoughness" : {
                "baseColorTexture" : {
                    "index" : 0,
                    "texCoord" : 0
                },
                "metallicFactor" : 0,
                "roughnessFactor" : 0.5
            }
        },
        {
            "doubleSided" : true,
            "name" : "broun.001",
            "pbrMetallicRoughness" : {
                "baseColorTexture" : {
                    "index" : 1,
                    "texCoord" : 0
                },
                "metallicFactor" : 0,
                "roughnessFactor" : 0.5
            }
        },
        {
            "doubleSided" : true,
            "name" : "st_gold",
            "pbrMetallicRoughness" : {
                "baseColorTexture" : {
                    "index" : 2,
                    "texCoord" : 0
                },
                "metallicFactor" : 0,
                "roughnessFactor" : 0.5
            }
        }
    ],
    "meshes" : [
        {
            "name" : "mariposa",
            "primitives" : [
                {
                    "attributes" : {
                        "POSITION" : 0,
                        "NORMAL" : 1,
                        "TEXCOORD_0" : 2
                    },
                    "indices" : 3,
                    "material" : 0
                },
                {
                    "attributes" : {
                        "POSITION" : 4,
                        "NORMAL" : 5,
                        "TEXCOORD_0" : 6
                    },
                    "indices" : 7,
                    "material" : 1
                },
                {
                    "attributes" : {
                        "POSITION" : 8,
                        "NORMAL" : 9,
                        "TEXCOORD_0" : 10
                    },
                    "indices" : 11,
                    "material" : 2
                },
                {
                    "attributes" : {
                        "POSITION" : 12,
                        "NORMAL" : 13,
                        "TEXCOORD_0" : 14
                    },
                    "indices" : 15,
                    "material" : 3
                }
            ]
        }
    ],
    "textures" : [
        {
            "sampler" : 0,
            "source" : 0
        },
        {
            "sampler" : 0,
            "source" : 1
        },
        {
            "sampler" : 0,
            "source" : 2
        }
    ],
    "images" : [
        {
            "bufferView" : 8,
            "mimeType" : "image/jpeg",
            "name" : "de"
        },
        {
            "bufferView" : 13,
            "mimeType" : "image/jpeg",
            "name" : "9"
        },
        {
            "bufferView" : 18,
            "mimeType" : "image/jpeg",
            "name" : "26"
        }
    ],
    "accessors" : [
        {
            "bufferView" : 0,
            "componentType" : 5126,
            "count" : 18357,
            "max" : [
                -39.24610137939453,
                -190.6374053955078,
                -0.08160000294446945
            ],
            "min" : [
                -102.26360321044922,
                -253.6549072265625,
                -50.081600189208984
            ],
            "type" : "VEC3"
        },
        {
            "bufferView" : 1,
            "componentType" : 5126,
            "count" : 18357,
            "type" : "VEC3"
        },
        {
            "bufferView" : 2,
            "componentType" : 5126,
            "count" : 18357,
            "type" : "VEC2"
        },
        {
            "bufferView" : 3,
            "componentType" : 5123,
            "count" : 32400,
            "type" : "SCALAR"
        },
        {
            "bufferView" : 4,
            "componentType" : 5126,
            "count" : 8748,
            "max" : [
                -26.835500717163086,
                -169.2803955078125,
                -67.3302993774414
            ],
            "min" : [
                -122.76950073242188,
                -269.5492858886719,
                -108.26139831542969
            ],
            "type" : "VEC3"
        },
        {
            "bufferView" : 5,
            "componentType" : 5126,
            "count" : 8748,
            "type" : "VEC3"
        },
        {
            "bufferView" : 6,
            "componentType" : 5126,
            "count" : 8748,
            "type" : "VEC2"
        },
        {
            "bufferView" : 7,
            "componentType" : 5123,
            "count" : 13116,
            "type" : "SCALAR"
        },
        {
            "bufferView" : 9,
            "componentType" : 5126,
            "count" : 8096,
            "max" : [
                -59.357601165771484,
                -233.79769897460938,
                -79.63809967041016
            ],
            "min" : [
                -71.13459777832031,
                -245.25799560546875,
                -83.3041000366211
            ],
            "type" : "VEC3"
        },
        {
            "bufferView" : 10,
            "componentType" : 5126,
            "count" : 8096,
            "type" : "VEC3"
        },
        {
            "bufferView" : 11,
            "componentType" : 5126,
            "count" : 8096,
            "type" : "VEC2"
        },
        {
            "bufferView" : 12,
            "componentType" : 5123,
            "count" : 12132,
            "type" : "SCALAR"
        },
        {
            "bufferView" : 14,
            "componentType" : 5126,
            "count" : 810,
            "max" : [
                -68.45059967041016,
                -219.49200439453125,
                -39.772098541259766
            ],
            "min" : [
                -74.51249694824219,
                -231.43930053710938,
                -76.34049987792969
            ],
            "type" : "VEC3"
        },
        {
            "bufferView" : 15,
            "componentType" : 5126,
            "count" : 810,
            "type" : "VEC3"
        },
        {
            "bufferView" : 16,
            "componentType" : 5126,
            "count" : 810,
            "type" : "VEC2"
        },
        {
            "bufferView" : 17,
            "componentType" : 5123,
            "count" : 1212,
            "type" : "SCALAR"
        }
    ],
    "bufferViews" : [
        {
            "buffer" : 0,
            "byteLength" : 220284,
            "byteOffset" : 0
        },
        {
            "buffer" : 0,
            "byteLength" : 220284,
            "byteOffset" : 220284
        },
        {
            "buffer" : 0,
            "byteLength" : 146856,
            "byteOffset" : 440568
        },
        {
            "buffer" : 0,
            "byteLength" : 64800,
            "byteOffset" : 587424
        },
        {
            "buffer" : 0,
            "byteLength" : 104976,
            "byteOffset" : 652224
        },
        {
            "buffer" : 0,
            "byteLength" : 104976,
            "byteOffset" : 757200
        },
        {
            "buffer" : 0,
            "byteLength" : 69984,
            "byteOffset" : 862176
        },
        {
            "buffer" : 0,
            "byteLength" : 26232,
            "byteOffset" : 932160
        },
        {
            "buffer" : 0,
            "byteLength" : 14656,
            "byteOffset" : 958392
        },
        {
            "buffer" : 0,
            "byteLength" : 97152,
            "byteOffset" : 973048
        },
        {
            "buffer" : 0,
            "byteLength" : 97152,
            "byteOffset" : 1070200
        },
        {
            "buffer" : 0,
            "byteLength" : 64768,
            "byteOffset" : 1167352
        },
        {
            "buffer" : 0,
            "byteLength" : 24264,
            "byteOffset" : 1232120
        },
        {
            "buffer" : 0,
            "byteLength" : 14690,
            "byteOffset" : 1256384
        },
        {
            "buffer" : 0,
            "byteLength" : 9720,
            "byteOffset" : 1271076
        },
        {
            "buffer" : 0,
            "byteLength" : 9720,
            "byteOffset" : 1280796
        },
        {
            "buffer" : 0,
            "byteLength" : 6480,
            "byteOffset" : 1290516
        },
        {
            "buffer" : 0,
            "byteLength" : 2424,
            "byteOffset" : 1296996
        },
        {
            "buffer" : 0,
            "byteLength" : 94078,
            "byteOffset" : 1299420
        }
    ],
    "samplers" : [
        {
            "magFilter" : 9729,
            "minFilter" : 9986
        }
    ],
    "buffers" : [
        {
            "byteLength" : 1393500,
            "uri" : "data:application/octet-stream;base64,"
        }
    ]
}
